<svg width="86" height="97" viewBox="0 0 86 97" fill="none" xmlns="http://www.w3.org/2000/svg">
<path d="M80.7183 80.9878C79.8815 77.4172 77.6877 75.2759 76.6005 74.2445C72.7873 70.6233 67.9901 69.9008 66.0695 69.6111C65.3691 69.5047 64.8912 69.468 64.5393 69.4349C59.3587 68.9532 48.9607 67.9864 44.771 61.2832C41.87 56.6428 43.1656 51.2049 43.4177 50.1403C43.7381 48.7948 44.8481 44.4214 48.9782 41.3726C49.9902 40.6257 52.8212 38.5978 56.8323 38.6746C58.0228 38.6973 60.9011 38.795 63.4223 40.9032C64.0753 41.4494 66.677 43.6274 66.628 46.9729C66.5999 48.8367 65.7508 51.1368 63.951 52.1333C62.841 52.7476 61.3616 52.5731 61.3616 52.5731C61.3616 52.5731 62.2982 52.348 62.9408 51.5085C63.902 50.2503 63.5273 48.4789 63.5098 48.3219C63.2945 46.3778 61.7047 45.2993 61.3616 45.0672C58.9875 43.4564 56.202 44.5261 55.9481 44.6274C53.2694 45.7059 52.4273 48.3289 52.2417 48.9083C51.2752 51.9221 52.6759 54.4841 52.977 55.0373C54.544 57.9028 57.3032 58.8696 58.3309 59.2309C61.5629 60.3635 64.3449 59.5834 65.2431 59.3181C68.6536 58.3094 70.5585 56.046 71.215 55.2432C74.0356 51.793 74.1739 47.9118 74.1266 46.3882C74.1074 45.7809 73.9708 42.6693 71.9504 39.3954C69.354 35.186 65.2711 32.9348 63.6551 32.2943C61.9568 31.6207 58.2136 30.0273 53.8454 31.0971C51.9108 31.5718 51.2122 31.8598 49.5367 32.7638C49.5367 32.7638 49.8133 29.6172 49.1831 26.5091C48.4425 22.8547 45.3926 20.6541 44.5942 20.0782C40.1875 16.8985 33.4154 18.4761 33.4154 18.4761C33.4154 18.4761 37.057 20.7064 39.6325 25.6505C41.1907 28.6417 41.3693 31.4723 41.4568 33.1372C41.6179 36.1825 40.2995 40.0376 40.2995 40.0376C40.2995 40.0376 39.4819 36.1476 36.1817 32.6294C34.24 30.5614 32.0725 29.6434 30.9643 29.1897C29.7667 28.6975 26.463 27.3904 22.2366 28.153C20.8797 28.3974 17.8964 28.9785 15.2544 31.4758C14.3615 32.3205 11.9979 34.5543 11.6268 38.2401C11.52 39.2994 11.3852 42.3883 13.5491 45.1404C14.0078 45.7233 15.7289 47.8472 18.7858 48.444C19.3653 48.5575 23.5794 49.3812 25.9238 46.5279C27.6868 44.383 28.1035 40.5105 26.0218 38.9242C24.5126 37.7741 21.9039 37.9905 20.7064 39.2558C19.4651 40.5699 19.6909 42.4023 19.7645 42.6955C19.8643 43.0934 17.147 39.9399 19.1569 36.4007C20.4945 34.0482 23.5899 34.0796 24.0592 34.0744C27.6851 34.036 30.5353 37.0795 31.7661 39.6449C32.568 41.3168 32.8009 42.6012 32.589 46.917C32.1636 55.5748 32.0568 55.1071 32.6083 58.6061C33.7586 65.8957 40.1647 70.3284 40.767 70.7263C46.1384 74.2707 52.4325 75.4592 54.6228 75.7401C57.8285 76.1502 60.7716 76.0333 64.3887 76.8535C66.241 77.2741 69.7409 78.2409 70.9682 81.9459C70.9979 82.0349 71.2851 82.9459 71.3026 84.164C71.2431 84.897 71.3744 86.0889 70.4955 86.3734C69.2296 86.7835 68.1424 85.7957 67.7257 85.26C67.6557 85.157 67.5804 85.0558 67.4998 84.9546C66.4826 83.6911 64.3047 83.445 62.5381 84.2722C60.6315 85.1657 60.0958 87.1797 59.9487 87.7329C59.054 91.1028 61.4964 93.9928 61.7135 94.2423C64.9542 97.9578 70.5935 96.8863 71.1853 96.7641C76.8316 95.6018 79.302 90.3681 79.7169 89.492C80.1669 88.5409 81.6971 85.171 80.7166 80.9896L80.7183 80.9878Z" fill="#08545B"/>
<path d="M62.1193 79.383C61.1987 79.242 59.8939 79.094 58.3849 78.9237C52.7522 78.2838 49.0576 77.754 46.7456 76.985C45.5153 77.1175 44.2659 77.1863 43.0009 77.1863C23.8963 77.1863 8.35306 61.7353 8.35306 42.744C8.35306 23.7528 23.8963 8.3035 43.0009 8.3035C62.1054 8.3035 77.6487 23.7545 77.6487 42.7458C77.6487 51.4466 74.3832 59.4044 69.0101 65.4733C70.0743 65.8225 71.2286 66.2767 72.478 66.8787C74.0181 67.6201 75.38 68.5319 76.5325 69.4728C82.4525 62.1481 86 52.8521 86 42.7475C86.0017 19.1753 66.712 0 43.0009 0C19.2897 0 0 19.1753 0 42.7458C0 66.3162 19.2897 85.4915 43.0009 85.4915C49.2047 85.4915 55.1056 84.1756 60.439 81.8154C60.6017 81.7225 60.7591 81.64 60.9131 81.5677C61.1069 81.4765 61.306 81.3991 61.505 81.3269C62.3702 80.9157 63.2181 80.4719 64.0505 80.004C63.5694 79.7253 62.9447 79.5103 62.121 79.3847L62.1193 79.383Z" fill="#08545B"/>
</svg>
