<svg width="212" height="150" viewBox="0 0 212 150" fill="none" xmlns="http://www.w3.org/2000/svg">
<path fill-rule="evenodd" clip-rule="evenodd" d="M15.4836 0.394089C16.0735 0.285403 17.0127 0.17864 18.4188 0.0604168C19.3307 -0.0162544 22.6387 -0.0188444 23.7023 0.0562742C25.5981 0.190172 26.6975 0.291095 27.4448 0.399928C27.8686 0.461664 28.4465 0.542775 28.729 0.580187C29.0115 0.617598 29.3912 0.683398 29.5729 0.726429C29.7545 0.769459 30.2168 0.868387 30.6002 0.946241C32.7241 1.37743 34.1603 1.78682 36.2506 2.557C37.5369 3.03101 39.5317 3.93524 40.1949 4.34507L40.4334 4.49249V19.8093L40.2683 19.7567C40.1775 19.7277 40.001 19.6257 39.8761 19.5299C39.7512 19.4341 39.6132 19.3557 39.5694 19.3557C39.5257 19.3557 39.445 19.3141 39.3901 19.2633C39.3352 19.2125 39.2255 19.1346 39.1463 19.0902C39.0672 19.0458 38.8043 18.8977 38.5621 18.7611C38.0021 18.4451 36.0752 17.489 35.7369 17.3592C35.5957 17.305 35.4471 17.2363 35.4067 17.2064C35.299 17.1266 34.1274 16.6775 33.242 16.3765C30.0958 15.307 27.5383 14.8498 24.0325 14.7303C21.0303 14.628 19.2972 14.9724 18.5155 15.8268C17.8932 16.5071 17.8958 17.5552 18.5214 18.2354C18.7233 18.4549 19.3667 18.9411 19.7764 19.1839C20.6736 19.7155 22.0999 20.2596 24.3994 20.9474C24.7627 21.056 25.258 21.2051 25.5002 21.2786C25.7423 21.3522 26.2377 21.4981 26.6009 21.603C26.9641 21.7077 27.5585 21.8798 27.9218 21.9851C29.2258 22.3636 31.6096 23.2115 32.5081 23.6167C34.5716 24.5472 35.6776 25.132 37.0578 26.022C38.5156 26.9621 39.7569 28.0235 40.6319 29.0782C41.0712 29.6076 41.9744 30.9568 41.9744 31.0835C41.9744 31.1328 42.003 31.1841 42.038 31.1978C42.1551 31.2431 42.8388 32.78 43.1376 33.6696C43.8039 35.6527 44.0454 37.7701 43.8897 40.2614C43.7882 41.8855 43.6207 42.9445 43.2273 44.4483C42.7459 46.2885 41.6817 48.39 40.5459 49.7427C40.2074 50.1461 38.8877 51.4558 38.5712 51.7025C38.0234 52.1298 37.1589 52.7387 36.9442 52.8484C36.825 52.9094 36.7111 52.9804 36.6909 53.0064C36.5833 53.1447 34.28 54.2533 34.1003 54.2533C34.048 54.2533 33.9738 54.2822 33.9354 54.3176C33.8002 54.4422 31.9339 55.022 30.6786 55.3293C30.4188 55.3929 30.2631 55.4291 30.2615 55.4712C30.2592 55.5322 30.5786 55.6056 31.3707 55.7924C32.2934 56.0101 33.309 56.282 33.5355 56.372C33.596 56.3961 33.9923 56.5413 34.4161 56.6948C35.494 57.085 35.8501 57.2417 37.0211 57.8411C38.4524 58.5737 39.8807 59.501 40.833 60.3159C41.4936 60.8811 41.7733 61.1407 42.3046 61.6817C44.0769 63.4864 45.3144 65.2405 46.4788 67.5987C46.9708 68.5952 47.5514 69.984 47.5514 70.1644C47.5514 70.2212 47.5811 70.2994 47.6174 70.338C47.6909 70.4163 47.8825 71.0604 48.2431 72.4415C48.5926 73.78 48.655 74.0645 48.8082 75.0199C49.1598 77.212 49.1941 77.7448 49.1933 81.018C49.1926 84.2318 49.1624 84.7302 48.8406 86.822C48.6195 88.2591 47.9489 90.9497 47.6244 91.7017C47.5893 91.7831 47.5382 91.9328 47.5108 92.0344C47.3677 92.5646 46.4819 94.4973 45.8674 95.6203C45.5552 96.1909 44.6824 97.5352 44.6034 97.5673C44.5701 97.5809 44.5428 97.6219 44.5428 97.6586C44.5428 97.7422 43.9014 98.5812 43.3273 99.2486C41.4454 101.436 39.2403 103.125 36.5643 104.427C36.0306 104.687 35.5663 104.899 35.5324 104.899C35.4986 104.899 35.341 104.962 35.182 105.039C34.559 105.34 31.7175 106.232 31.3842 106.231C31.311 106.23 31.192 106.262 31.1198 106.301C30.9425 106.396 29.5517 106.649 28.252 106.822C27.6668 106.899 26.9238 107.005 26.6009 107.056C26.1489 107.128 23.0223 107.155 13.0069 107.173L0 107.196V54.7709H4.49097C7.05074 54.7709 8.95192 54.7432 8.91222 54.7064C8.87391 54.6709 8.59484 54.5824 8.29214 54.5097C7.98944 54.4371 7.69225 54.3525 7.63171 54.3218C7.57117 54.2912 7.17491 54.1591 6.75113 54.0284C6.32735 53.8978 5.83202 53.7319 5.6504 53.6599C5.46878 53.5879 5.08903 53.4389 4.80651 53.3288C4.52399 53.2187 4.16075 53.0684 3.99931 52.995C3.83787 52.9215 3.49114 52.7717 3.2288 52.662C2.75013 52.4619 1.81774 52.0021 0.825545 51.4767L0.293527 51.1951V43.1495C0.293527 38.5836 0.321412 35.104 0.357956 35.104C0.393326 35.104 0.463406 35.1539 0.513673 35.2149C0.563939 35.2759 0.637175 35.3258 0.676435 35.3258C0.715694 35.3258 0.851303 35.4007 0.977813 35.4922C1.10425 35.5836 1.26532 35.6918 1.33577 35.7324C1.40614 35.7731 1.73702 35.9727 2.07106 36.176C2.40516 36.3792 2.7775 36.5976 2.89858 36.661C3.01966 36.7245 3.30035 36.8782 3.52233 37.0024C4.38486 37.4852 5.57848 38.0726 6.71444 38.5732C6.91623 38.6621 7.14739 38.7651 7.22811 38.8019C7.47533 38.9148 8.72635 39.3923 8.77478 39.3923C8.79987 39.3923 8.9244 39.4368 9.05157 39.4913C9.40278 39.6416 10.7963 40.0733 11.8512 40.3585C16.2151 41.5388 22.6052 41.7129 24.5462 40.7047C25.2574 40.3352 25.7569 39.5631 25.7569 38.8331C25.7571 38.1267 25.1015 37.298 24.0668 36.6967C23.5146 36.3758 22.5775 35.9177 22.4713 35.9168C22.4421 35.9165 22.3288 35.8695 22.2197 35.8121C21.8932 35.6405 20.2979 35.1263 19.0059 34.7762C16.9695 34.2244 16.8005 34.1732 15.4469 33.6993C14.7472 33.4543 13.2814 32.8886 12.9519 32.7364C12.8712 32.6991 12.5495 32.5682 12.237 32.4456C11.9245 32.3229 11.6108 32.1894 11.5399 32.1489C11.4689 32.1083 11.1467 31.9551 10.8238 31.8082C8.89923 30.9328 6.21125 29.4191 5.43069 28.7711C4.315 27.8448 3.3344 26.82 2.65488 25.87C1.9852 24.9337 0.969519 23.0442 0.837652 22.4895C0.809767 22.3721 0.762217 22.2429 0.73191 22.2022C0.656253 22.1006 0.3821 21.1568 0.19505 20.3538C0.0505615 19.7336 0.0399205 19.4801 0.0383794 16.6201C0.036765 13.7428 0.0465224 13.5081 0.194607 12.8494C0.678853 10.6959 1.27259 9.29313 2.39981 7.63934C2.92537 6.86819 3.79362 5.88847 4.46763 5.306C4.7252 5.08338 4.97287 4.86587 5.018 4.82261C5.18993 4.65781 6.2238 3.9104 6.75113 3.56977C7.83395 2.87027 9.59511 2.02526 11.044 1.51C12.0169 1.16406 13.6653 0.713342 14.4463 0.57974C14.6737 0.54085 15.1405 0.457303 15.4836 0.394089ZM115.65 2.15117C118.882 0.931676 121.483 0.387064 125.63 0.0619692C126.662 -0.0189164 129.939 -0.0211353 130.95 0.0583455C134.149 0.310023 135.209 0.470538 137.628 1.06912C139.981 1.65159 142.259 2.54303 144.159 3.62478C144.784 3.98093 146.452 5.06283 146.828 5.35665C148.129 6.37275 149.833 7.98935 150.657 8.99007C152.419 11.1299 153.278 12.4329 154.322 14.5499C155.058 16.0415 155.525 17.2782 156.192 19.5036C156.417 20.2543 156.861 22.4823 156.957 23.3482C156.996 23.6939 157.071 24.326 157.124 24.753C157.187 25.2625 157.221 26.4188 157.221 28.1171C157.221 29.8154 157.187 30.9717 157.124 31.4811C157.071 31.9081 156.996 32.5403 156.957 32.8859C156.882 33.56 156.765 34.1994 156.471 35.5476C155.829 38.4952 154.677 41.357 153.11 43.9023C152.797 44.4106 152.52 44.8432 152.495 44.8635C152.47 44.8838 152.353 45.0502 152.235 45.2332C151.765 45.9653 150.487 47.4754 149.421 48.5603C148.283 49.7176 147.823 50.1287 146.879 50.8317C146.593 51.0441 146.327 51.246 146.286 51.2804C146.245 51.3148 145.997 51.4809 145.735 51.6495C145.473 51.818 145.223 51.9867 145.179 52.0243C145.054 52.132 144.003 52.7183 143.278 53.0855C140.595 54.4444 137.688 55.3456 134.509 55.8044C133.082 56.0103 132.425 56.0909 131.739 56.1441C131.406 56.17 131.133 56.2033 131.133 56.2183C131.133 56.2423 131.399 56.6754 132.014 57.6539C132.562 58.5254 134.491 61.5699 135.247 62.7559C135.727 63.5082 136.195 64.2471 136.287 64.3979C136.378 64.5486 136.661 64.9978 136.915 65.396C137.169 65.7942 137.416 66.1865 137.465 66.2679C137.514 66.3492 137.628 66.5216 137.719 66.6511C137.81 66.7805 137.884 66.9042 137.884 66.926C137.884 66.9476 138.076 67.2576 138.311 67.6148C138.545 67.9719 139.098 68.838 139.54 69.5395C140.399 70.9039 141.535 72.7036 142.883 74.833C143.342 75.5587 143.751 76.2081 143.792 76.2763C143.832 76.3444 143.939 76.5044 144.03 76.6318C144.121 76.7593 144.195 76.8856 144.195 76.9125C144.195 76.9394 144.278 77.0705 144.379 77.2038C144.48 77.3371 144.562 77.4846 144.562 77.5315C144.562 77.8097 144.864 77.3877 146.317 75.0803C146.847 74.2386 146.966 74.0506 147.74 72.8309C148.095 72.2711 148.65 71.3972 148.971 70.8888C149.293 70.3805 149.748 69.6652 149.983 69.2992C150.452 68.567 151.06 67.613 151.68 66.6327C151.902 66.2821 152.315 65.6334 152.597 65.1912C152.88 64.749 153.408 63.9192 153.772 63.3471C154.135 62.775 154.64 61.9837 154.895 61.5888C155.149 61.1937 155.627 60.438 155.956 59.9094C156.285 59.3808 156.589 58.9089 156.631 58.8608C156.673 58.8128 156.872 58.5031 157.074 58.1726C157.276 57.8421 157.672 57.2115 157.954 56.7712C158.237 56.3309 158.584 55.7812 158.725 55.5497C158.866 55.3181 159.042 55.0482 159.115 54.9498L159.249 54.7709H174.282V36.6913L174.117 36.3934C173.864 35.937 173.037 34.4896 172.958 34.3646C172.919 34.3036 172.777 34.0541 172.641 33.8101C172.397 33.3703 171.073 31.053 170.843 30.6606C170.777 30.5484 170.422 29.9301 170.055 29.2867C168.956 27.3629 168.568 26.6852 168.008 25.7142C167.715 25.2059 167.401 24.6569 167.311 24.4942C167.221 24.3316 166.923 23.8159 166.65 23.3482C166.377 22.8806 166.089 22.3815 166.01 22.2392C165.625 21.5425 165.456 21.2452 164.961 20.3908C164.666 19.8825 164.342 19.3169 164.241 19.1339C164.14 18.9509 164.005 18.7125 163.941 18.604C163.877 18.4956 163.524 17.8801 163.156 17.2362C162.521 16.1249 162.016 15.2438 160.007 11.7403C157.485 7.34308 157.303 7.02582 157.07 6.6018C156.981 6.43914 156.684 5.92344 156.411 5.4558C156.139 4.98815 155.841 4.47245 155.75 4.30979C155.354 3.6009 154.229 1.64153 154.179 1.57418C154.149 1.53351 154.104 1.44198 154.079 1.37085C154.035 1.24805 154.539 1.24146 164.002 1.24146H173.97L174.067 1.48176C174.119 1.61395 174.358 2.13793 174.596 2.64624C174.834 3.15455 175.112 3.77006 175.213 4.01405C175.399 4.46055 175.507 4.70291 176.005 5.78851C176.244 6.31108 176.481 6.84231 176.928 7.85871C176.999 8.02136 177.165 8.38735 177.295 8.672C177.521 9.165 177.682 9.52063 178.132 10.5204C178.242 10.7644 178.428 11.1721 178.545 11.4263C178.662 11.6806 178.758 11.9021 178.758 11.9185C178.758 11.935 178.909 12.2759 179.093 12.6762C179.632 13.8461 179.691 13.976 179.862 14.365C179.952 14.5684 180.1 14.9011 180.192 15.1044C180.283 15.3077 180.513 15.8234 180.702 16.2504C180.892 16.6774 181.146 17.243 181.267 17.5073C181.459 17.9253 181.891 18.8884 182.262 19.7254C182.325 19.8677 182.489 20.2293 182.627 20.529C182.765 20.8286 182.911 21.161 182.951 21.2675L183.024 21.4612L183.164 21.2771C183.241 21.176 183.305 21.0662 183.306 21.0332C183.307 21.0002 183.387 20.8006 183.484 20.5895C183.581 20.3786 183.796 19.9129 183.961 19.5547C184.126 19.1964 184.262 18.8893 184.262 18.8722C184.262 18.855 184.396 18.5522 184.56 18.1993C184.724 17.8464 185.083 17.0555 185.357 16.4419C187.171 12.3847 187.544 11.556 187.83 10.9411C188.007 10.5625 188.151 10.2405 188.151 10.2256C188.151 10.2107 188.262 9.95485 188.398 9.65704C188.534 9.35923 188.719 8.94926 188.808 8.74593C188.978 8.36028 189.033 8.23807 189.567 7.07898C189.746 6.69082 189.936 6.24994 189.99 6.09933C190.044 5.94872 190.115 5.82548 190.147 5.82548C190.179 5.82548 190.206 5.78267 190.206 5.73025C190.206 5.65395 191.345 3.06013 192.04 1.55569L192.185 1.24146H202.093C211.479 1.24146 212 1.24827 212 1.37085C211.999 1.44198 211.731 1.96603 211.404 2.53534C211.076 3.10464 210.56 4.00296 210.257 4.5316C209.954 5.06024 209.645 5.59258 209.57 5.71457C209.494 5.83657 209.41 5.98628 209.381 6.04728C209.353 6.10828 209.088 6.56912 208.794 7.07136C208.499 7.57368 208.258 7.99852 208.258 8.01552C208.258 8.03253 208.18 8.17057 208.086 8.32228C207.723 8.90349 206.57 10.9487 206.57 11.0103C206.57 11.0458 206.544 11.0749 206.512 11.0749C206.48 11.0749 206.403 11.1831 206.341 11.3152C206.279 11.4473 206.008 11.9341 205.739 12.3969C205.469 12.8596 205.249 13.2672 205.249 13.3026C205.249 13.3379 205.223 13.3669 205.191 13.3669C205.159 13.3669 205.082 13.4751 205.021 13.6072C204.959 13.7393 204.668 14.2634 204.373 14.7717C203.779 15.7955 202.84 17.4276 201.65 19.5036C201.219 20.2559 200.511 21.4869 200.078 22.2392C199.644 22.9915 198.926 24.2392 198.483 25.0118C197.739 26.3064 196.729 28.0572 196.552 28.3598C196.511 28.4297 196.132 29.0952 195.708 29.8387C195.285 30.5823 194.886 31.281 194.821 31.3914C194.756 31.5018 194.389 32.141 194.004 32.812C193.619 33.483 193.015 34.531 192.663 35.141C192.31 35.7509 191.976 36.3332 191.921 36.4348C191.838 36.588 191.821 38.1919 191.82 45.7983C191.82 54.0995 191.809 54.9811 191.704 55.0217C191.64 55.0464 187.743 55.0666 183.045 55.0666H174.502V107.191H157.697V83.423L157.546 83.6438C157.463 83.7652 157.053 84.3969 156.634 85.0475C156.215 85.6982 155.837 86.2707 155.794 86.3198C155.751 86.3689 155.716 86.4256 155.716 86.4458C155.716 86.48 155.412 86.9614 154.286 88.7073C154.037 89.0937 153.679 89.6509 153.49 89.9458C152.658 91.249 152.43 91.6036 151.914 92.4041C150.756 94.2023 150.456 94.6705 150.246 95.0076C150.127 95.1993 149.847 95.6319 149.625 95.9688L149.222 96.5815L140.196 96.6155L139.609 95.6877C139.286 95.1774 138.848 94.4946 138.637 94.1703C138.425 93.8461 138.251 93.5518 138.251 93.5162C138.251 93.4806 138.225 93.4405 138.194 93.4269C138.162 93.4134 137.941 93.0862 137.702 92.6999C137.464 92.3135 137.192 91.8946 137.099 91.7687C137.006 91.6429 136.93 91.5043 136.93 91.4606C136.93 91.417 136.904 91.3703 136.872 91.3567C136.841 91.3432 136.537 90.8829 136.197 90.3339C135.858 89.785 135.561 89.3192 135.537 89.2988C135.513 89.2785 135.297 88.9458 135.057 88.5595C134.817 88.1732 134.423 87.5496 134.18 87.1737C133.937 86.7979 133.524 86.1529 133.261 85.7405C132.999 85.3281 132.546 84.6208 132.254 84.1688L131.723 83.347L131.72 107.191H114.916L114.953 53.8467L113.852 53.3049C111.94 52.3637 110.097 51.1576 108.678 49.9193C107.764 49.1206 106.051 47.3217 105.379 46.4531C105.253 46.2905 105.11 46.1068 105.061 46.045C104.215 44.9717 103.137 43.2401 102.471 41.8815C102.249 41.4273 102.039 41.0048 102.006 40.9425C101.869 40.6847 101.193 38.9309 100.952 38.2085C99.8116 34.789 99.3056 30.6899 99.4953 26.4055C99.6012 24.0137 99.9056 21.9227 100.49 19.5775C100.839 18.1754 101.677 15.9476 102.396 14.5129C102.944 13.4189 104.081 11.4769 104.279 11.2967C104.302 11.2764 104.434 11.0935 104.573 10.8902C105.869 8.99827 107.876 6.89858 109.779 5.44582C111.502 4.13072 113.755 2.86635 115.65 2.15117ZM44.0987 2.90502C44.0233 2.73696 43.5154 1.31281 43.5154 1.26934C43.5154 1.25367 47.7289 1.24937 52.8788 1.25965L62.2422 1.27843L62.411 1.83295C62.5037 2.13793 62.6671 2.68691 62.7739 3.05289C62.8807 3.41887 63.0295 3.91794 63.1044 4.16192C63.4246 5.20471 63.8419 6.5825 64.0562 7.30419C64.4833 8.74335 64.6608 9.33587 64.765 9.67013C64.9961 10.4112 65.6954 12.7377 66.1651 14.3281C66.2671 14.6737 66.3931 15.0896 66.4448 15.2523C66.6219 15.8086 66.7677 16.2877 66.9961 17.0637C67.1217 17.4907 67.2869 18.0396 67.3631 18.2836C67.4393 18.5276 67.5382 18.877 67.5829 19.06C67.6276 19.243 67.694 19.4592 67.7305 19.5405C67.767 19.6219 67.8672 19.9379 67.9532 20.2429C68.112 20.8069 68.1631 20.9789 68.5021 22.0913C68.6075 22.437 68.7717 22.9859 68.8671 23.3113C68.9626 23.6366 69.1288 24.1855 69.2365 24.5312C69.3443 24.8768 69.4761 25.3094 69.5295 25.4924C69.583 25.6754 69.7141 26.1079 69.8209 26.4535C69.9278 26.7992 70.0764 27.2982 70.1512 27.5626C70.325 28.1764 71.0419 30.5653 71.3278 31.4833C71.4485 31.8707 71.5472 32.2384 71.5472 32.3003C71.5472 32.3621 71.5759 32.4443 71.6108 32.483C71.6458 32.5216 71.7345 32.7861 71.8079 33.0708C71.8814 33.3554 71.9806 33.6846 72.0284 33.8023C72.1123 34.0089 72.1232 33.9899 72.3493 33.2478C72.478 32.8251 72.6462 32.263 72.7231 31.9987C72.8 31.7344 73.0147 31.019 73.2003 30.4091C73.3858 29.7991 73.6205 29.0172 73.7219 28.6716C73.8233 28.3259 73.9666 27.8435 74.0402 27.5995C74.1138 27.3555 74.3452 26.5737 74.5543 25.862C74.7635 25.1504 74.9632 24.5016 74.9981 24.4203C75.033 24.339 75.125 24.0395 75.2025 23.7549C75.3878 23.0741 76.0729 20.7577 76.5035 19.3557C76.6097 19.01 76.7396 18.5775 76.7921 18.3945C76.8446 18.2115 76.9772 17.7624 77.0868 17.3964C77.1963 17.0304 77.3638 16.4648 77.4588 16.1395C77.5539 15.8142 77.712 15.2818 77.8101 14.9565C78.8941 11.3621 79.0961 10.6811 79.4658 9.37439C79.5521 9.0694 79.6513 8.75333 79.6862 8.672C79.7212 8.59067 79.8384 8.20805 79.9467 7.82174C80.0549 7.43542 80.188 6.98626 80.2424 6.82361C80.2967 6.66095 80.5451 5.82917 80.7943 4.97521C81.0435 4.12126 81.3251 3.17303 81.4199 2.86805C81.5148 2.56306 81.6635 2.07228 81.7504 1.7775L81.9084 1.24146H91.2574C96.3994 1.24146 100.606 1.26239 100.606 1.28797C100.606 1.333 99.448 4.55977 99.1366 5.38186C99.0519 5.60552 98.9223 5.9715 98.8484 6.19515C98.7747 6.41881 98.6794 6.68498 98.6366 6.78664C98.5939 6.8883 98.4241 7.35409 98.2593 7.82174C98.0946 8.28938 97.9306 8.73854 97.8949 8.81987C97.8592 8.9012 97.7968 9.06755 97.7562 9.18955C97.7155 9.31154 97.6088 9.61098 97.5191 9.85497C97.4292 10.099 97.2666 10.5481 97.1576 10.8531C97.0487 11.1581 96.6693 12.2061 96.3146 13.1821C95.9598 14.158 95.6058 15.1395 95.5278 15.3632C95.4498 15.5868 95.3561 15.8364 95.3196 15.9177C95.2832 15.999 95.0706 16.5813 94.8472 17.2116C94.6238 17.8419 94.4107 18.4241 94.3735 18.5054C94.3363 18.5868 94.2666 18.7864 94.2187 18.9491C94.1707 19.1117 94.0903 19.3446 94.0399 19.4666C93.9201 19.7569 93.662 20.4616 93.1596 21.8695C92.9347 22.4998 92.7212 23.0821 92.6851 23.1634C92.649 23.2447 92.5634 23.4776 92.4947 23.6809C92.3218 24.1933 92.1406 24.6998 91.9128 25.3075C91.8062 25.5922 91.5685 26.241 91.3848 26.7493C91.201 27.2576 90.9528 27.9396 90.8332 28.2649C90.7136 28.5903 90.5883 28.9396 90.5547 29.0413C90.5213 29.1429 90.3959 29.4923 90.2762 29.8176C90.1565 30.1429 89.7696 31.2076 89.4163 32.1835C88.7841 33.9303 88.4887 34.7377 88.402 34.9561C88.3778 35.0171 88.2939 35.25 88.2155 35.4737C87.7934 36.6773 87.1661 38.4131 87.1065 38.542C87.069 38.6233 86.7715 39.4385 86.4455 40.3534C86.1195 41.2684 85.823 42.0835 85.7865 42.1648C85.75 42.2462 85.681 42.4458 85.633 42.6085C85.585 42.7711 85.5034 43.004 85.4517 43.126C85.3999 43.248 85.3237 43.4476 85.2825 43.5696C85.2412 43.6916 85.1339 43.9911 85.0442 44.235C84.9543 44.479 84.7908 44.9282 84.6808 45.2332C84.2772 46.3515 83.7789 47.7252 83.5677 48.3015C83.4485 48.6268 83.3228 48.9762 83.2883 49.0778C83.2539 49.1795 83.1383 49.4956 83.0314 49.7802C82.8251 50.3298 82.3594 51.6191 81.8831 52.9594C81.7242 53.4068 81.513 53.9781 81.4139 54.229C81.3147 54.4799 81.2336 54.7211 81.2336 54.765L63.0247 54.8448L62.8078 54.2348C62.6885 53.8994 62.5625 53.5583 62.528 53.477C62.4936 53.3957 62.3803 53.0962 62.2765 52.8116C61.6684 51.1448 61.2368 49.9521 61.1124 49.5954C61.0344 49.3717 60.925 49.0723 60.8693 48.93C60.7352 48.5875 59.9693 46.4885 59.7902 45.9725C59.7125 45.7489 59.6195 45.4993 59.5834 45.418C59.5473 45.3367 59.4547 45.0872 59.3775 44.8635C59.2246 44.4202 58.6581 42.8588 57.5669 39.8728C57.1806 38.8156 56.5201 37.0023 56.0991 35.8433C55.4168 33.9648 54.3087 30.9223 54.0525 30.2242C54.0003 30.0819 53.6871 29.2169 53.3567 28.3019C53.0263 27.387 52.7211 26.5552 52.6784 26.4535C52.6357 26.3519 52.5528 26.119 52.494 25.936C52.4353 25.753 52.3567 25.5367 52.3195 25.4554C52.2822 25.3741 52.0678 24.7918 51.8429 24.1615C51.6181 23.5312 51.39 22.9157 51.336 22.7937C51.282 22.6717 51.1986 22.4388 51.1506 22.2762C51.1027 22.1135 51.0337 21.9139 50.9971 21.8325C50.9607 21.7512 50.748 21.169 50.5246 20.5387C50.3012 19.9084 50.0881 19.3261 50.0509 19.2448C50.0138 19.1635 49.9194 18.9139 49.8413 18.6903C49.6548 18.1565 48.7883 15.764 48.5426 15.1044C48.381 14.6708 47.5442 12.3743 46.9262 10.6683C46.8378 10.4243 46.7458 10.1747 46.7217 10.1137C46.6977 10.0527 46.493 9.48714 46.2669 8.85684C46.0408 8.22654 45.8102 7.59439 45.7544 7.45206C45.6987 7.30973 45.59 7.01029 45.5129 6.78664C45.4357 6.56298 45.2011 5.9142 44.9913 5.34489C44.7815 4.77559 44.5098 4.02699 44.3875 3.68134C44.2651 3.33569 44.1352 2.98635 44.0987 2.90502ZM136.476 19.5272C134.742 17.5415 132.785 16.5517 129.849 16.1749C129.236 16.0963 127.386 16.0994 126.767 16.1802C125.05 16.4039 123.616 16.8828 122.327 17.6633C121.966 17.8823 121.149 18.5631 120.676 19.039C120.28 19.4383 119.466 20.4768 119.466 20.5828C119.466 20.6131 119.419 20.6905 119.362 20.7546C119.231 20.9029 118.631 22.1083 118.474 22.5402C118.409 22.7203 118.278 23.1338 118.184 23.4591C118.09 23.7844 117.994 24.1005 117.97 24.1615C117.947 24.2225 117.844 24.8641 117.742 25.5871C117.49 27.383 117.49 28.8512 117.742 30.647C117.844 31.3701 117.947 32.0116 117.97 32.0726C117.994 32.1336 118.09 32.4497 118.184 32.775C118.427 33.6163 118.55 33.9349 118.918 34.674C120.715 38.2851 123.898 40.1307 128.329 40.1318C130.36 40.1324 132.07 39.7687 133.592 39.0128C135.287 38.1705 136.768 36.6704 137.679 34.8751C138.107 34.0296 138.154 33.9173 138.421 33.1077C139.365 30.2365 139.365 25.9976 138.421 23.1264C137.964 21.7374 137.246 20.408 136.476 19.5272ZM27.6649 70.9225C26.6939 70.2909 25.8747 69.9479 24.6196 69.6478C23.821 69.4569 23.7764 69.4545 20.4183 69.4278L17.0241 69.4008L17.0613 92.6629L19.0793 92.6848C23.3808 92.7315 25.0308 92.4954 26.8462 91.5733C29.0152 90.4717 30.5051 88.3638 31.1625 85.4666C31.5031 83.966 31.6503 81.7557 31.5462 79.7057C31.4543 77.8948 31.2782 76.807 30.8589 75.4604C30.6526 74.798 29.887 73.1646 29.6691 72.922C29.596 72.8407 29.4378 72.6411 29.3177 72.4784C28.9584 71.9923 28.1736 71.2534 27.6649 70.9225ZM1.31595 118.572C2.15023 117.732 3.49136 117.059 4.68653 116.882C5.27483 116.795 6.48123 116.793 7.06667 116.879C7.63332 116.961 8.40067 117.191 8.86085 117.416L9.17272 117.568V120.344L8.63858 120.089C7.5642 119.575 6.29696 119.421 5.32179 119.685C4.32358 119.956 3.6142 120.493 3.27327 121.235C3.14221 121.521 3.11873 121.712 3.11873 122.496C3.11873 123.344 3.13495 123.455 3.31547 123.843C3.87522 125.046 5.31072 125.672 7.01457 125.456C7.69856 125.37 8.47413 125.148 8.93489 124.908C9.0617 124.842 9.20083 124.788 9.24405 124.788C9.29791 124.788 9.3164 125.224 9.30275 126.171L9.2828 127.554L8.84251 127.692C8.60035 127.769 8.34505 127.862 8.27519 127.899C7.75147 128.178 5.26757 128.318 4.29284 128.123C2.30529 127.727 0.641359 126.355 0.138473 124.699C0.00110248 124.247 -0.00946668 124.056 0.0160702 122.481C0.0347083 121.334 0.034323 120.962 0.131278 120.617C0.187015 120.419 0.274921 120.23 0.417104 119.908C0.594834 119.506 1.02742 118.863 1.31595 118.572ZM40.2534 117.018C40.2958 116.985 40.5434 116.927 40.8038 116.889C42.3125 116.672 43.8525 116.957 44.9097 117.65C46.0121 118.371 46.5754 119.23 46.9693 120.787C47.0971 121.292 47.1209 121.565 47.0981 122.265C47.0799 122.824 47.0321 123.202 46.9612 123.346L46.8523 123.568L43.1659 123.587C40.2895 123.602 39.4798 123.626 39.481 123.698C39.4845 123.897 39.7643 124.397 40.0364 124.691C40.7488 125.459 42.8047 125.952 44.1519 125.677C45.4388 125.414 45.6877 125.352 45.9584 125.23C46.1247 125.155 46.287 125.11 46.319 125.13C46.3511 125.15 46.3773 125.711 46.3773 126.376V127.586L45.992 127.706C45.7801 127.773 45.554 127.856 45.4894 127.891C45.4248 127.926 45.012 128.013 44.5721 128.085C43.4514 128.268 41.6426 128.268 40.7636 128.085C40.4004 128.01 40.0701 127.925 40.0298 127.896C39.9894 127.868 39.7913 127.784 39.5895 127.709C38.7391 127.395 37.6102 126.49 37.099 125.714C36.3583 124.588 36.0838 122.967 36.3537 121.313C36.5947 119.836 37.2724 118.719 38.4154 117.915C38.8019 117.643 39.679 117.197 39.9564 117.131C40.0775 117.102 40.2112 117.051 40.2534 117.018ZM53.1284 117.388C53.2157 117.284 54.237 116.944 54.6364 116.885C56.8761 116.556 58.7151 117.331 59.8345 119.074C60.5163 120.136 60.7704 121.075 60.7704 122.533C60.7704 123.995 60.5182 124.924 59.8268 126.007C59.4814 126.548 58.7291 127.335 58.4818 127.414C58.403 127.439 58.3385 127.488 58.3385 127.522C58.3385 127.557 58.1816 127.645 57.99 127.717C57.7983 127.789 57.6249 127.871 57.6047 127.898C57.5845 127.926 57.3209 128.005 57.0188 128.073C55.1816 128.492 53.4968 128.134 52.3482 127.081L52.1011 126.855V132.847H48.945L48.9824 117.136H51.6975L51.7397 118.59L52.2009 118.122C52.4547 117.864 52.7589 117.603 52.877 117.542C52.9951 117.481 53.1082 117.412 53.1284 117.388ZM80.1696 116.99C80.2503 116.966 80.6136 116.917 80.9768 116.88C81.9678 116.779 83.5218 116.85 84.2119 117.027C85.922 117.468 86.9918 118.522 87.3672 120.135C87.4689 120.572 87.5038 121.18 87.5381 123.103C87.5723 125.024 87.5614 125.575 87.8012 125.728C87.9166 125.802 88.0901 125.783 88.3547 125.78L88.8654 125.775V126.785C88.8654 127.779 88.8624 127.797 88.6901 127.876C88.3253 128.043 87.6001 128.134 86.8961 128.1C86.02 128.057 85.4822 127.83 85.0646 127.327C84.9182 127.15 84.772 127.006 84.7398 127.006C84.7076 127.006 84.5553 127.098 84.4013 127.209C84.2473 127.321 83.9091 127.508 83.6497 127.625C83.3904 127.742 83.1201 127.867 83.0489 127.903C82.8194 128.021 81.8853 128.191 81.239 128.234C80.0623 128.311 78.9211 127.948 78.1522 127.251C77.4625 126.626 77.1899 125.973 77.1864 124.936C77.1845 124.359 77.2176 124.144 77.3708 123.735C77.5772 123.184 77.5918 123.162 78.1149 122.612C78.6941 122.004 79.2728 121.691 80.1905 121.489C80.9066 121.332 82.906 121.326 83.7837 121.478L84.3891 121.583L84.3875 121.245C84.3844 120.607 83.9218 119.933 83.3617 119.751C83.2205 119.705 83.0678 119.638 83.0223 119.601C82.8884 119.495 81.6116 119.449 80.9768 119.528C80.2133 119.623 79.5627 119.777 78.7893 120.047C78.4452 120.167 78.1445 120.246 78.121 120.222C78.0975 120.199 78.0782 119.59 78.0782 118.871V117.562L78.4065 117.436C78.5871 117.367 79.0246 117.247 79.3788 117.171C79.7331 117.095 80.0889 117.013 80.1696 116.99ZM93.6719 118.132C94.3034 117.482 95.2849 116.995 96.2035 116.875C98.0779 116.63 99.675 117.143 100.753 118.336C101.259 118.896 101.262 118.9 101.531 119.391C102.116 120.455 102.319 121.365 102.274 122.718C102.233 123.937 102.096 124.544 101.671 125.395C101.488 125.759 101.396 125.947 101.277 126.117C101.143 126.31 100.975 126.48 100.606 126.859C100.169 127.308 99.9277 127.487 99.4323 127.727C99.0893 127.894 98.6105 128.073 98.3683 128.124C97.8058 128.245 96.3605 128.247 95.8366 128.128C95.3094 128.008 94.3361 127.521 93.9662 127.192C93.8052 127.049 93.6483 126.932 93.6176 126.932C93.5869 126.932 93.5618 128.264 93.5618 129.891V132.85L90.4431 132.81L90.4243 125.055C90.4106 119.313 90.4275 117.273 90.4897 117.197C90.5567 117.116 90.8438 117.099 91.9027 117.115L93.2316 117.136L93.3049 118.51L93.6719 118.132ZM115.965 119.657C116.68 118.263 118.317 117.125 119.952 116.884C121.805 116.612 123.615 117.138 124.748 118.279C125.267 118.802 125.568 119.317 125.896 120.241C126.095 120.801 126.106 120.898 126.106 122.052C126.107 122.911 126.079 123.322 126.012 123.439L125.918 123.605H122.215C119.716 123.605 118.512 123.63 118.512 123.681C118.512 123.852 118.881 124.472 119.132 124.724C119.697 125.291 121.089 125.749 122.245 125.749C122.986 125.749 124.418 125.492 124.933 125.267C125.144 125.174 125.269 125.112 125.343 125.15C125.455 125.207 125.453 125.493 125.466 126.249C125.478 126.87 125.456 127.436 125.418 127.506C125.212 127.894 122.585 128.335 121.071 128.236C120.31 128.186 119.253 127.994 119.139 127.886C119.101 127.849 119.018 127.819 118.956 127.819C118.771 127.818 117.709 127.249 117.3 126.931C116.417 126.245 115.889 125.458 115.529 124.292C115.347 123.703 115.329 123.538 115.331 122.533C115.334 121.237 115.47 120.623 115.965 119.657ZM10.1246 117.511C10.0485 117.352 10.0033 117.194 10.0241 117.16C10.0449 117.126 10.782 117.099 11.662 117.099H13.2621L13.4606 117.561C13.5699 117.815 13.6891 118.089 13.7255 118.171C13.9891 118.76 14.7497 120.518 14.7497 120.538C14.7497 120.552 14.8488 120.779 14.9699 121.043C15.091 121.306 15.19 121.54 15.19 121.563C15.19 121.586 15.2686 121.78 15.3646 121.995C15.4607 122.209 15.7126 122.784 15.9244 123.272C16.1363 123.76 16.3219 124.173 16.3369 124.19C16.3954 124.256 16.4665 124.089 16.9215 122.816C17.1805 122.091 17.4216 121.431 17.4572 121.35C17.4929 121.269 17.6228 120.919 17.7458 120.574C17.8688 120.228 18.0742 119.662 18.2022 119.317C18.3301 118.971 18.5517 118.356 18.6946 117.949C18.8375 117.542 18.9907 117.185 19.0352 117.155C19.1467 117.08 22.1438 117.084 22.1898 117.159C22.2199 117.208 21.2473 119.821 20.9879 120.389C20.9506 120.47 20.654 121.219 20.3287 122.052C20.0033 122.886 19.708 123.635 19.6724 123.716C19.6368 123.797 19.5665 123.98 19.516 124.123C19.4655 124.265 19.3823 124.481 19.3312 124.603C19.2445 124.81 18.8954 125.7 17.8671 128.337C17.4795 129.331 16.8522 130.691 16.7419 130.777C16.7157 130.797 16.5695 131.001 16.417 131.229C15.7466 132.233 14.6545 132.933 13.5201 133.087C12.9401 133.166 11.7035 133.089 11.349 132.952C11.242 132.911 11.2274 132.745 11.2274 131.574C11.2274 130.335 11.2362 130.247 11.3558 130.3C11.4264 130.331 11.8176 130.371 12.2249 130.39C12.9232 130.421 12.9898 130.411 13.3889 130.214C13.6459 130.087 13.9396 129.859 14.1363 129.633C14.4727 129.247 14.9699 128.326 14.9699 128.089C14.9699 128.014 14.8244 127.648 14.6466 127.276C14.4687 126.904 14.2045 126.341 14.0595 126.026C13.7417 125.336 13.3194 124.416 13.1342 124.012C13.0598 123.849 12.7819 123.256 12.5167 122.695C12.2516 122.133 12.0346 121.66 12.0346 121.644C12.0346 121.628 11.82 121.161 11.5576 120.608C11.2953 120.054 11.0807 119.591 11.0807 119.579C11.0807 119.558 10.4231 118.136 10.1246 117.511ZM23.72 122.607C23.7096 119.679 23.7169 117.242 23.7362 117.191C23.7642 117.117 24.8565 117.102 29.002 117.117L34.2326 117.136L34.2703 127.97L31.1506 127.93L31.1126 119.834H26.8577V127.97L23.739 127.93L23.72 122.607ZM62.7593 122.575C62.7444 118.339 62.7598 117.206 62.8327 117.16C62.8834 117.127 63.5555 117.1 64.3261 117.1C65.8099 117.099 65.836 117.104 65.997 117.468C66.024 117.529 66.1363 117.719 66.2466 117.89C66.357 118.06 66.6454 118.519 66.8875 118.908C67.1297 119.298 67.4104 119.748 67.5113 119.908C67.6122 120.068 67.9919 120.682 68.3551 121.273C68.7184 121.863 69.0386 122.347 69.0667 122.347C69.0948 122.348 69.23 122.173 69.3671 121.96C69.7994 121.287 70.6967 119.849 70.8656 119.558C70.9548 119.405 71.0657 119.227 71.1119 119.162C71.1581 119.097 71.4659 118.615 71.7958 118.09L72.3956 117.136H75.3264L75.3641 127.967H72.3545V124.94C72.3545 123.275 72.3261 121.896 72.2916 121.874C72.257 121.852 71.7404 122.624 71.1435 123.589C70.5466 124.553 70.0084 125.401 69.9475 125.472C69.8555 125.579 69.71 125.601 69.089 125.601C68.4673 125.601 68.3228 125.579 68.2319 125.472C68.1719 125.401 67.8458 124.893 67.5073 124.344C67.1689 123.795 66.8249 123.244 66.743 123.119C66.6611 122.993 66.4454 122.653 66.2638 122.363C66.0821 122.072 65.9087 121.833 65.8785 121.832C65.8483 121.831 65.8235 123.212 65.8235 124.9V127.97L62.7781 127.93L62.7593 122.575ZM104.293 122.607C104.283 119.679 104.29 117.241 104.31 117.19C104.337 117.117 104.69 117.1 105.87 117.116L107.394 117.136L107.468 121.128L108.031 121.15C108.421 121.165 108.619 121.142 108.678 121.076C108.724 121.023 108.99 120.648 109.269 120.241C109.547 119.834 109.844 119.402 109.928 119.28C110.013 119.158 110.379 118.616 110.743 118.077L111.405 117.096L113.105 117.116C114.376 117.131 114.806 117.158 114.806 117.225C114.806 117.318 114.784 117.352 114.287 118.048C113.989 118.465 113.367 119.367 112.748 120.278C112.569 120.542 112.16 121.139 111.839 121.605C111.519 122.071 111.277 122.486 111.302 122.529C111.381 122.664 111.649 123.049 111.69 123.087C111.712 123.108 112.091 123.623 112.533 124.233C112.975 124.843 113.394 125.407 113.466 125.486C113.537 125.565 113.595 125.654 113.595 125.684C113.595 125.714 113.637 125.783 113.688 125.836C113.934 126.096 115.192 127.886 115.155 127.924C115.131 127.948 114.348 127.967 113.414 127.967H111.717L111.247 127.32C110.988 126.964 110.662 126.507 110.521 126.304C110.381 126.1 110.222 125.89 110.169 125.836C110.116 125.783 110.073 125.716 110.073 125.688C110.073 125.661 109.998 125.549 109.908 125.441C109.817 125.333 109.495 124.893 109.192 124.465L108.642 123.686L107.433 123.679L107.394 127.93H104.312L104.293 122.607ZM126.877 118.465C126.877 117.51 126.9 117.175 126.969 117.147C127.019 117.127 129.257 117.116 131.94 117.123L136.82 117.136V119.797L133.408 119.837V127.97L130.363 127.93L130.325 119.834H128.717C127.833 119.834 127.057 119.814 126.993 119.789C126.894 119.751 126.877 119.563 126.877 118.465ZM43.8822 120.388C43.7038 119.994 43.1687 119.499 42.8076 119.394C42.0561 119.175 41.0146 119.273 40.468 119.614C40.0519 119.873 39.644 120.385 39.521 120.802C39.4467 121.054 39.3714 121.211 39.418 121.307C39.5053 121.488 40.0191 121.461 41.7637 121.461H44.1214L44.0709 121.078C44.0432 120.867 43.9582 120.557 43.8822 120.388ZM122.498 119.745C122.383 119.634 122.142 119.492 121.962 119.428C121.625 119.308 120.714 119.223 120.456 119.287C120.093 119.377 119.59 119.552 119.513 119.615C119.467 119.653 119.321 119.771 119.189 119.878C118.863 120.141 118.59 120.633 118.519 121.085L118.46 121.461H123.135V121.126C123.135 120.734 122.821 120.053 122.498 119.745ZM57.4938 121.699C57.2779 120.776 56.7845 120.123 56.0349 119.767C55.4379 119.484 54.4279 119.406 53.9723 119.608C53.0554 120.014 52.6522 120.318 52.3098 120.862L52.1011 121.194V123.872L52.3089 124.2C52.5916 124.648 53.0646 125.062 53.5599 125.295C54.1524 125.575 55.2455 125.613 55.8743 125.376C57.1549 124.892 57.8643 123.282 57.4938 121.699ZM97.5244 119.753C97.3831 119.706 97.2346 119.643 97.1942 119.613C97.0821 119.53 96.2082 119.478 95.8366 119.533C95.1022 119.64 94.2603 120.206 93.774 120.918L93.5618 121.229V123.798L93.7714 124.127C94.0637 124.585 94.294 124.816 94.7477 125.105C95.2939 125.453 95.6971 125.547 96.5076 125.516C97.3096 125.485 97.7115 125.319 98.2142 124.813C98.8798 124.142 99.2432 122.972 99.0681 122.064C98.8751 121.063 98.6744 120.668 98.0776 120.114C97.9146 119.962 97.6657 119.8 97.5244 119.753ZM84.3891 123.476L83.9671 123.393C83.3511 123.271 82.2841 123.232 81.8263 123.314C81.0239 123.458 80.5147 123.868 80.392 124.468C80.2831 125 80.6495 125.593 81.2336 125.83C81.5803 125.97 82.6301 125.954 83.1472 125.8C83.3723 125.733 83.7438 125.554 83.9728 125.402L84.3891 125.126V123.476ZM180.046 139.094C180.795 137.505 182.582 136.336 184.629 136.095C184.891 136.064 185.452 136.055 185.876 136.075C186.903 136.124 187.604 136.289 188.467 136.685L188.811 136.843V138.209C188.811 138.96 188.792 139.575 188.768 139.575C188.744 139.575 188.488 139.463 188.199 139.326C187.91 139.189 187.492 139.031 187.27 138.975C186.742 138.842 185.132 138.839 184.739 138.972C183.841 139.274 183.229 139.763 182.897 140.446C182.706 140.837 182.69 140.937 182.688 141.756C182.685 142.595 182.697 142.668 182.903 143.087C183.304 143.9 184.134 144.503 185.106 144.685C186.068 144.866 187.826 144.594 188.542 144.155C188.67 144.076 188.799 144.012 188.83 144.012C188.86 144.011 188.885 144.639 188.885 145.406V146.801L188.341 147.001C187.064 147.47 185.07 147.62 183.779 147.345C182.598 147.092 181.46 146.462 180.739 145.661C180.116 144.968 179.941 144.661 179.654 143.752C179.488 143.225 179.467 143.032 179.462 141.978C179.456 140.655 179.566 140.113 180.046 139.094ZM69.9571 137.906C70.6461 137.134 71.9042 136.437 73.125 136.152C73.2057 136.133 73.6891 136.113 74.1993 136.109C74.968 136.102 75.2467 136.131 75.8264 136.283C77.2891 136.666 78.2999 137.464 78.8738 138.688C79.3467 139.697 79.4302 140.095 79.4326 141.35C79.434 142.147 79.4062 142.546 79.341 142.662L79.2472 142.828H71.8291L71.8811 143.067C71.99 143.566 72.4973 144.151 73.0828 144.452C74.337 145.097 76.4467 145.143 78.1141 144.564C78.4032 144.463 78.6619 144.381 78.6891 144.381C78.7164 144.381 78.7387 144.941 78.7387 145.626V146.871L78.0966 147.063C77.0091 147.389 76.0618 147.502 74.7394 147.464C74.0936 147.446 73.3716 147.392 73.1349 147.345C72.48 147.215 71.6129 146.852 71.0182 146.458C70.5265 146.133 69.5659 145.242 69.5659 145.112C69.5659 145.082 69.5229 145.013 69.4704 144.959C69.4179 144.905 69.3034 144.712 69.2159 144.529C68.1923 142.386 68.5126 139.524 69.9571 137.906ZM167.754 137.801C168.512 137.044 169.334 136.575 170.393 136.293C171.4 136.025 172.863 136.021 173.868 136.284C175.471 136.704 176.762 137.679 177.425 138.973C178.049 140.189 178.231 141.955 177.879 143.385C177.375 145.43 175.847 146.853 173.625 147.348C172.419 147.617 170.562 147.474 169.616 147.04C169.442 146.96 169.279 146.895 169.254 146.895C169.145 146.895 168.195 146.225 167.836 145.894C166.614 144.77 166.046 142.995 166.269 140.999C166.425 139.606 166.84 138.711 167.754 137.801ZM56.1371 147.193V136.396H59.2925V140.465L63.5119 140.425L63.551 136.396H66.6307V147.19H63.551L63.5119 143.161L59.2948 143.122L59.2558 147.153L56.1371 147.193ZM82.1195 144.251C82.9472 142.431 83.2825 140.721 83.4025 137.708L83.4547 136.396H92.2409V144.746L93.8186 144.788L93.8572 150H90.92V147.19H83.2883V150H80.3531V144.751H81.8926L82.1195 144.251ZM95.7265 147.153L95.6889 136.387L103.285 136.44L103.778 136.635C104.05 136.742 104.314 136.864 104.366 136.906C104.834 137.286 105.026 137.478 105.16 137.696C105.832 138.791 105.728 140.322 104.927 141.13C104.74 141.318 104.484 141.515 104.358 141.567C104.232 141.62 104.13 141.684 104.132 141.71C104.133 141.735 104.296 141.836 104.494 141.932C104.964 142.163 105.387 142.579 105.605 143.025C105.76 143.342 105.78 143.485 105.78 144.27C105.78 145.101 105.767 145.184 105.569 145.577C105.327 146.058 104.871 146.554 104.496 146.745C104.354 146.817 104.041 146.938 103.799 147.015C103.392 147.143 103.069 147.153 99.5424 147.153H95.7265ZM107.908 147.153L107.87 136.396H111.025L111.063 142.348L111.577 141.693C111.86 141.333 112.503 140.515 113.008 139.874C113.512 139.233 114.024 138.58 114.145 138.424C114.266 138.268 114.58 137.872 114.843 137.544C115.105 137.217 115.413 136.824 115.526 136.671L115.733 136.393L118.475 136.433V147.153L115.356 147.193L115.352 141.239L115.152 141.467C115.042 141.592 114.622 142.119 114.219 142.638C113.815 143.157 113.452 143.62 113.411 143.667C113.37 143.714 113.158 143.985 112.939 144.27C112.72 144.555 112.483 144.854 112.411 144.935C112.339 145.017 112.061 145.366 111.794 145.712C111.527 146.057 111.253 146.407 111.186 146.49C111.118 146.572 110.97 146.764 110.857 146.916L110.65 147.194L107.908 147.153ZM121.757 139.094C121.634 138.938 120.126 136.486 120.126 136.442C120.126 136.417 120.866 136.396 121.769 136.396H123.413L123.742 136.932C123.923 137.227 124.175 137.651 124.302 137.875C124.429 138.098 124.855 138.814 125.248 139.464L125.962 140.647L126.877 140.691V136.396H130.03L130.069 140.647L130.521 140.669C130.957 140.69 130.978 140.683 131.144 140.448C131.239 140.315 131.352 140.139 131.395 140.057C131.438 139.975 131.945 139.118 132.521 138.152L133.568 136.396H136.945L136.789 136.636C136.591 136.94 135.262 139.049 135.038 139.413C134.946 139.563 134.576 140.152 134.217 140.721L133.564 141.756L133.688 141.959C133.806 142.154 134.746 143.534 135.235 144.233C135.363 144.416 135.625 144.799 135.817 145.083C136.009 145.368 136.388 145.923 136.658 146.316C136.929 146.71 137.151 147.067 137.151 147.111C137.151 147.165 136.629 147.19 135.506 147.19H133.862L133.295 146.322C132.984 145.844 132.639 145.32 132.528 145.157C131.868 144.185 131.473 143.58 131.381 143.401C131.279 143.204 131.259 143.198 130.654 143.198H130.033V147.193L126.914 147.153L126.875 143.198H125.789L125.581 143.487C125.309 143.864 125.247 143.957 124.883 144.529C124.715 144.793 124.55 145.02 124.517 145.034C124.483 145.048 124.456 145.087 124.456 145.122C124.456 145.156 124.154 145.636 123.785 146.187L123.114 147.19H121.474C120.433 147.19 119.832 147.164 119.832 147.117C119.832 147.076 120.375 146.253 121.038 145.287C121.701 144.321 122.512 143.138 122.841 142.659L123.438 141.787L122.977 141.032C122.44 140.153 121.841 139.201 121.757 139.094ZM138.545 147.19V136.396H141.627V139.304C141.627 140.903 141.647 142.233 141.672 142.258C141.722 142.308 141.876 142.129 142.801 140.942C143.144 140.501 143.458 140.105 143.499 140.061C143.54 140.018 143.689 139.832 143.829 139.649C143.97 139.466 144.125 139.267 144.173 139.206C144.542 138.742 145.626 137.351 145.955 136.921L146.357 136.396H149.113L149.075 147.153H145.993L145.92 141.276L145.333 142.027C145.01 142.439 144.713 142.814 144.672 142.858C144.632 142.903 144.501 143.072 144.381 143.235C144.262 143.398 143.931 143.815 143.647 144.163C143.364 144.51 143.049 144.907 142.948 145.044C142.847 145.181 142.425 145.72 142.01 146.242L141.256 147.19H138.545ZM151.68 147.19V136.396H154.667L155.063 137.026C155.281 137.372 155.548 137.797 155.657 137.969C156.017 138.538 156.19 138.82 156.473 139.292C156.627 139.549 156.849 139.91 156.966 140.093C157.083 140.276 157.247 140.542 157.331 140.684C157.721 141.35 157.886 141.592 157.952 141.592C158.02 141.591 159.106 139.93 159.351 139.449C159.418 139.319 159.519 139.173 159.575 139.126C159.632 139.078 159.679 139.01 159.679 138.974C159.679 138.937 159.833 138.667 160.022 138.373C160.211 138.078 160.447 137.704 160.547 137.542C160.647 137.379 160.785 137.163 160.853 137.061C160.921 136.96 161.032 136.768 161.1 136.636L161.224 136.396H164.228V147.193L161.257 147.153L161.183 141.017L160.922 141.423C160.779 141.647 160.537 142.03 160.386 142.274C159.604 143.532 158.941 144.584 158.836 144.732C158.727 144.886 158.662 144.898 157.961 144.898H157.205L156.924 144.436C156.77 144.182 156.621 143.958 156.594 143.937C156.566 143.917 156.485 143.784 156.413 143.642C156.342 143.499 156.261 143.366 156.235 143.346C156.21 143.325 155.876 142.801 155.494 142.181C155.113 141.561 154.775 141.054 154.745 141.054C154.714 141.054 154.689 142.435 154.689 144.122V147.19H151.68ZM189.985 137.776C189.985 137.071 190.008 136.472 190.034 136.445C190.061 136.418 192.307 136.396 195.024 136.396H199.965V139.058H196.516V147.193L193.471 147.153L193.433 139.058H189.985V137.776ZM201.58 147.19V136.396H204.734L204.772 142.3L205.469 141.413C205.852 140.926 206.223 140.454 206.291 140.365C206.36 140.276 206.966 139.505 207.637 138.651C208.308 137.797 208.978 136.942 209.126 136.75L209.395 136.402L212 136.396V147.193L209.028 147.153L208.955 141.277L208.258 142.171C207.874 142.662 207.527 143.103 207.486 143.15C207.445 143.197 207.296 143.385 207.156 143.567C207.015 143.75 206.86 143.95 206.811 144.011C205.925 145.12 204.476 146.963 204.414 147.061C204.342 147.177 204.188 147.19 202.956 147.19H201.58ZM75.7464 138.978C75.5832 138.837 75.2977 138.681 75.1119 138.631C74.6986 138.52 73.8159 138.524 73.4185 138.64C72.5459 138.894 71.9339 139.575 71.7979 140.444L71.7486 140.758H76.4638L76.4638 140.444C76.4637 140.008 76.115 139.296 75.7464 138.978ZM101.934 140.644C102.632 140.28 102.608 139.073 101.897 138.733C101.696 138.636 101.382 138.614 100.247 138.614H98.8453V140.758H100.28C101.432 140.758 101.758 140.735 101.934 140.644ZM89.0855 144.751V138.836H86.318L86.2684 139.594C86.2413 140.01 86.189 140.534 86.1525 140.758C86.116 140.982 86.0481 141.414 86.0016 141.719C85.8937 142.429 85.6021 143.529 85.3405 144.215L85.1357 144.751H89.0855ZM174.843 141.453C174.736 140.174 173.94 139.193 172.844 138.989C171.334 138.707 170.273 139.216 169.681 140.504C169.499 140.902 169.48 141.022 169.48 141.793C169.48 142.558 169.5 142.686 169.675 143.067C169.937 143.637 170.194 143.962 170.591 144.228C171.612 144.909 173.174 144.793 173.998 143.974C174.642 143.334 174.929 142.478 174.843 141.453ZM102.618 144.422C102.87 143.887 102.69 143.216 102.221 142.942C101.989 142.806 101.814 142.789 100.403 142.768L98.8414 142.744L98.882 145.009H100.35C101.732 145.009 101.837 144.999 102.159 144.84C102.388 144.726 102.539 144.588 102.618 144.422Z" fill="white"/>
<path fill-rule="evenodd" clip-rule="evenodd" d="M62.9992 54.8454H59.7103C56.5814 54.8454 56.4129 54.8523 56.2481 54.9868L56.0749 55.1281V81.055C56.0749 106.635 56.0768 106.983 56.2173 107.087C56.3397 107.177 59.9762 107.192 82.0327 107.192H107.706L108.066 106.829V80.985C108.066 55.2397 108.065 55.1406 107.919 54.9933C107.773 54.8465 107.675 54.8454 94.4902 54.8454C85.0327 54.8454 81.2081 54.8224 81.2081 54.7656L62.9992 54.8454ZM91.8852 80.9914C91.8852 73.111 91.8671 71.2483 91.7898 71.1704C91.7127 71.0927 89.8671 71.0716 82.1401 71.0601C76.8852 71.0523 72.5167 71.0742 72.4324 71.1088C72.348 71.1434 72.2402 71.2662 72.1928 71.3818C72.1281 71.5397 72.1115 73.9592 72.1261 81.1176L72.1455 90.6434L72.3187 90.7847C72.4873 90.9222 72.7487 90.926 82.0462 90.926C90.1818 90.926 91.6215 90.9104 91.7428 90.8211C91.8825 90.7181 91.8852 90.5325 91.8852 80.9914Z" fill="#00A651"/>
</svg>
