<svg width="797" height="179" viewBox="0 0 797 179" fill="none" xmlns="http://www.w3.org/2000/svg">
<g filter="url(#filter0_d_34_177569)">
<path d="M23.1889 21.7418C35.9783 7.25055 53.9148 0 76.979 0C100.043 0 117.98 7.25055 130.769 21.7418C143.558 36.233 149.958 54.9026 149.958 77.731C149.958 102.525 142.622 122.133 127.939 136.555L147.019 168.906H118.709L107.596 149.792C98.0907 153.575 87.8849 155.462 76.979 155.462C53.9148 155.462 35.9783 148.211 23.1889 133.72C10.3996 119.229 4 100.559 4 77.731C4 54.9026 10.3996 36.2429 23.1889 21.7418ZM76.979 127.527C82.57 127.527 87.9539 126.549 93.1308 124.583L69.4356 83.4109H96.7003L111.166 107.988C115.643 99.3048 117.881 89.2193 117.881 77.731C117.881 63.0225 114.42 51.0502 107.498 41.8042C100.576 32.5583 90.4092 27.9353 76.9888 27.9353C63.5684 27.9353 53.5698 32.5978 46.5785 41.903C39.5873 51.2181 36.0966 63.1607 36.0966 77.7211C36.0966 92.2815 39.5873 104.224 46.5785 113.539C53.5698 122.854 63.7065 127.507 76.9888 127.507L76.979 127.527Z" fill="white"/>
<path d="M280.405 152.736L268.237 112.186H211.193L199.025 152.736H168.2L215.808 2.73626H264.253L312.068 152.736H280.405ZM234.888 32.7756L219.16 84.8729H259.845L244.118 32.7756H234.888Z" fill="white"/>
<path d="M333.249 2.73626H395.746C418.257 2.73626 435.454 9.46325 447.337 22.9074C459.219 36.3515 465.165 54.6261 465.165 77.7409C465.165 100.856 459.219 119.13 447.337 132.574C435.454 146.018 418.257 152.746 395.746 152.746H333.249V2.73626ZM364.497 124.79H391.762C406.02 124.79 416.473 120.484 423.119 111.87C429.755 103.256 433.078 91.8765 433.078 77.731C433.078 63.5855 429.755 52.2059 423.119 43.5922C416.473 34.9785 406.03 30.6716 391.762 30.6716H364.497V124.79Z" fill="white"/>
<path d="M588.68 152.736L576.512 112.186H519.468L507.3 152.736H476.475L524.082 2.73626H572.528L620.343 152.736H588.68ZM543.173 32.7756L527.445 84.8729H568.13L552.402 32.7756H543.173Z" fill="white"/>
<path d="M641.523 152.736V2.73626H689.545L714.078 63.2398H719.531L743.857 2.73626H792.096V152.736H762.948V40.9745H757.495L732.33 101.478H701.082L676.124 40.9745H670.672V152.736H641.523Z" fill="white"/>
</g>
<defs>
<filter id="filter0_d_34_177569" x="0" y="0" width="796.096" height="178.906" filterUnits="userSpaceOnUse" color-interpolation-filters="sRGB">
<feFlood flood-opacity="0" result="BackgroundImageFix"/>
<feColorMatrix in="SourceAlpha" type="matrix" values="0 0 0 0 0 0 0 0 0 0 0 0 0 0 0 0 0 0 127 0" result="hardAlpha"/>
<feOffset dy="6"/>
<feGaussianBlur stdDeviation="2"/>
<feComposite in2="hardAlpha" operator="out"/>
<feColorMatrix type="matrix" values="0 0 0 0 0 0 0 0 0 0 0 0 0 0 0 0 0 0 0.67 0"/>
<feBlend mode="normal" in2="BackgroundImageFix" result="effect1_dropShadow_34_177569"/>
<feBlend mode="normal" in="SourceGraphic" in2="effect1_dropShadow_34_177569" result="shape"/>
</filter>
</defs>
</svg>
